# xmcd CD database file
#
# Track frame offsets:
#	150
#	16228
#	33591
#	49417
#	67191
#	82089
#	101593
#	123139
#	139654
#	160798
#	173778
#	199794
#	217623
#
# Disc length: 3118 seconds
#
# Revision: 0
# Processed by: cddbd v1.5.2PL0 Copyright (c) Steve Scherf et al.
# Submitted via: CDex 1.51
#
DISCID=af0c2c0d
DTITLE=Bobby Rush - Raw
DYEAR=2006
DGENRE=Blues
TTITLE0=01 Boney Maroney
TTITLE1=02 School Girl
TTITLE2=03 Glad To Get You Back
TTITLE3=04 Howlin' Wolf
TTITLE4=05 Knockin' At Your Door
TTITLE5=06 What's Going On
TTITLE6=07 9 Below Zero
TTITLE7=08 What's the Use
TTITLE8=09 You Don't Love Me
TTITLE9=10 I'm Tired
TTITLE10=11 How Long
TTITLE11=12 Uncle Esau
TTITLE12=13 I Got 3 Problems
EXTD=YEAR: 2006
EXTT0=
EXTT1=
EXTT2=
EXTT3=
EXTT4=
EXTT5=
EXTT6=
EXTT7=
EXTT8=
EXTT9=
EXTT10=
EXTT11=
EXTT12=
PLAYORDER=
